<svg width="100" height="53" viewBox="0 0 100 53" fill="none" xmlns="http://www.w3.org/2000/svg">
<path fill-rule="evenodd" clip-rule="evenodd" d="M30.5572 27.1148H23.6555L24.44 15.1186L19.958 27.1148H13.549L23.718 0H30.5374L29.7503 12.1607L34.3172 0H40.7268L30.5572 27.1148ZM31.3898 27.1148L41.5583 0H47.9673L37.7988 27.1148H31.3898Z" fill="white"/>
<path fill-rule="evenodd" clip-rule="evenodd" d="M12.8099 17.7687C3.85397 28.2862 -4.59431 42.2804 2.86801 48.7247C10.0989 54.9697 19.1372 51.2722 25.2999 48.807C31.4625 46.3419 99.5784 16.7619 99.5784 16.7619C100.236 16.4332 100.113 16.0223 99.2909 16.2275C98.9596 16.3103 25.1358 36.3171 25.1358 36.3171C15.7678 38.9469 5.08629 33.2155 12.8099 17.7687Z" fill="white"/>
<path fill-rule="evenodd" clip-rule="evenodd" d="M76.9649 4.5194L78.6872 0H59.1315L52.4168 8.13459L55.5168 0H49.0255L38.9382 27.1148H45.3473L49.654 15.7759L49.949 27.1148L69.6142 27.072L71.4862 21.8563H64.0095L66.4661 15.2832H72.6282L74.5243 10.23H68.3621L70.4746 4.5194H76.9649ZM56.3072 25.3069L55.8963 11.1748L65.5865 0.535465L56.3072 25.3069Z" fill="white"/>
</svg>
